<?xml version="1.0" encoding="UTF-8" standalone="no"?>
<svg width="93px" height="22px" viewBox="0 0 93 22" version="1.1" xmlns="http://www.w3.org/2000/svg" xmlns:xlink="http://www.w3.org/1999/xlink" xmlns:sketch="http://www.bohemiancoding.com/sketch/ns">
    <!-- Generator: Sketch 3.4.3 (16618) - http://www.bohemiancoding.com/sketch -->
    <title>logo</title>
    <desc>Created with Sketch.</desc>
    <defs></defs>
    <g id="Page-1" stroke="none" stroke-width="1" fill="none" fill-rule="evenodd" sketch:type="MSPage">
        <g id="Blackout-01" sketch:type="MSArtboardGroup" transform="translate(-67.000000, -17.000000)">
            <g id="header" sketch:type="MSLayerGroup">
                <g id="logo" transform="translate(67.000000, 17.000000)" sketch:type="MSShapeGroup">
                    <path d="M82.5748429,14.6070703 C83.0978032,14.6021589 83.4898899,14.6714643 83.706232,14.9612373 C83.9572957,15.2963044 83.8408449,16.0592096 83.9193691,16.5410732 C84.018192,17.6374084 84.1164808,18.7331979 84.2147695,19.8289874 C84.2745975,20.2044372 84.4177572,20.8762085 84.2644481,21.231467 C84.0635971,21.6964135 83.5240773,21.8644928 82.9354131,21.9561724 C82.2009183,22.0718633 81.4904615,21.642388 81.3120461,21.1828986 C81.176899,20.8363715 81.3200587,20.1951601 81.37775,19.844813 C81.4594792,18.9312913 81.5417426,18.0177696 81.6234719,17.1053393 C81.707872,16.5929159 81.6416339,15.3470556 81.8531684,15.0092599 C82.0150244,14.7516839 82.27784,14.7407697 82.5748429,14.6070703 Z M86.6762619,12.2370435 C87.2446273,12.2217636 87.6944052,12.616859 88.1196109,12.8013096 C89.1414935,13.268439 90.1639103,13.7366598 91.186327,14.2037892 C91.6024517,14.3844198 92.3000882,14.5623219 92.5313873,14.9284946 C92.9357601,15.5686146 92.4865164,16.4570336 92.1708171,16.8472176 C91.9469965,17.1228021 91.3551273,17.5533688 90.8091973,17.3301726 C89.6665905,16.5410732 88.5234495,15.7514281 87.3808427,14.9612373 C87.0288194,14.7173041 86.0651622,14.1988778 85.8557644,13.8976448 C85.5101512,13.401047 85.9449722,12.6610617 86.2494536,12.4302255 C86.3749855,12.3347259 86.5186794,12.3096232 86.6762619,12.2370435 Z M78.7041889,12.2370435 C79.4130432,12.230495 80.2169811,13.2122307 79.7372892,13.8976448 C79.5268231,14.1977864 78.5642343,14.7173041 78.2122109,14.9612373 C77.06907,15.7514281 75.9269973,16.5410732 74.7843905,17.3301726 C74.2373922,17.5522774 73.6460571,17.1233478 73.4227707,16.8472176 C73.1140158,16.4663107 72.6455417,15.5593375 73.0616663,14.9284946 C73.2956363,14.5732361 74.2154909,14.2796431 74.6524485,14.0902811 C76.0028506,13.4725352 77.3532527,12.8553351 78.7041889,12.2370435 Z M91.0388939,4.71003936 C92.0249865,4.71222221 93.1729351,6.14253308 92.5313873,7.16028576 C92.2888705,7.54501265 91.5265984,7.74365178 91.0885724,7.93355952 C89.9294061,8.47108573 88.7702398,9.00806624 87.6110734,9.54559245 C87.0849081,9.79279994 86.6842746,10.0154504 86.1677244,9.59416081 C85.8798024,9.35895899 85.5427361,8.60860513 85.8717898,8.17476417 C86.385669,7.82114287 86.8995483,7.46588442 87.4139618,7.1117174 C88.0923679,6.64458802 88.7702398,6.17636722 89.4481117,5.70923784 C89.9732087,5.34579372 90.4123031,4.98944385 91.0388939,4.71003936 Z M74.3736076,4.71003936 C75.016758,4.69857941 75.4216649,5.20936574 75.8169566,5.48385882 C76.7127732,6.10105898 77.6101923,6.71989626 78.506543,7.33709642 C78.8259815,7.55865545 79.5636814,7.92046243 79.7533146,8.22387825 C80.0358948,8.67463627 79.6977601,9.28201361 79.4744736,9.54559245 C78.9045057,10.2168181 77.8933067,9.49211269 77.3094501,9.23890237 C76.2923751,8.76631587 75.2753001,8.29482079 74.2582251,7.82114287 C73.8901765,7.66124928 73.3207427,7.51226994 73.093717,7.20885412 C72.5258858,6.44976888 73.2758717,5.27812544 73.7491535,4.95178973 C73.9361158,4.82354743 74.1380351,4.80553894 74.3736076,4.71003936 Z M82.5251644,0.148979347 C83.3782467,0.133153702 84.0491743,0.321970018 84.2799392,0.905881744 C84.4033344,1.21311754 84.2820759,1.77247223 84.2318632,2.08189088 C84.1549416,2.9315643 84.0785541,3.78014629 84.0016325,4.62872829 C83.9092197,5.19790579 83.96424,6.76519035 83.7227915,7.1117174 C83.5625381,7.3409164 83.2457706,7.44678451 82.9028283,7.49808143 C81.4840514,7.71145478 81.8050924,6.2074728 81.6400314,5.17771445 C81.551892,4.20471014 81.464821,3.23279726 81.37775,2.25979295 C81.3216613,1.90671736 81.1726256,1.25186309 81.3120461,0.905881744 C81.5235806,0.375449783 81.9856446,0.372175512 82.5251644,0.148979347 Z" id="SVGID_1_-path" fill="#FDBB30"></path>
                    <path d="M0.239311759,4.05518509 L3.14256937,4.05518509 C3.5747194,6.2303927 4.00686943,8.40778315 4.43848528,10.5835365 C4.63559697,11.6847831 4.83164031,12.785484 5.02875201,13.887822 L5.04531153,13.887822 C5.12223316,13.4687153 5.19862062,13.0490628 5.27500808,12.6299561 C5.43846656,11.8937907 5.60299339,11.1581711 5.76645187,10.4220058 C6.2643058,8.2997322 6.76162555,6.17745864 7.25947947,4.05518509 C8.22153411,4.0606422 9.18465711,4.06609932 10.1456434,4.07101073 C10.3699982,5.10295192 10.5943529,6.1343474 10.8187077,7.16519717 C11.3619668,9.29620212 11.7914459,11.5516294 12.1151578,13.8223366 C12.1204996,13.8114223 12.1258414,13.8010538 12.130649,13.7901396 C12.2780821,12.9737546 12.4260494,12.1568239 12.5740167,11.3398932 C13.0873618,8.91202094 13.6017753,6.4830573 14.1151204,4.05463937 L16.871479,4.05463937 C15.9585687,7.44460166 15.0451243,10.8356554 14.1316799,14.2250719 C13.9126669,15.0578283 13.6947222,15.8916761 13.4751751,16.723341 C13.3394939,16.8548576 12.1461401,16.8772318 11.8678334,16.8204777 C10.3678615,16.5159705 10.2952132,15.3290471 9.93250635,13.9031019 C9.57727796,12.2861576 9.22151539,10.6681218 8.866287,9.05117748 C8.76746406,8.41706026 8.66917531,7.78348875 8.57035237,7.14991724 L8.55486121,7.14991724 C8.5281523,8.04051905 8.23328603,8.96331786 8.0297642,9.76060294 C7.45659117,12.0815156 6.88181561,14.402974 6.30757422,16.723341 C5.43526149,16.848309 4.41017384,16.9367143 3.79800582,16.497962 C2.90913357,15.8605705 2.77932831,14.2616346 2.46950505,13.0648885 C1.7264634,10.0618359 0.982887582,7.05878335 0.239311759,4.05518509 Z M26.4022835,4.05518509 L29.0267002,4.05518509 L29.0267002,16.7238867 L26.4022835,16.7238867 L26.4022835,4.05518509 Z M63.2114234,4.05518509 L65.8021869,4.05518509 L65.8021869,7.05332623 L68.0831271,7.05332623 L68.0831271,9.48665557 L65.8021869,9.48665557 C65.7909691,10.8001841 65.5682169,14.0608127 66.26158,14.5645047 C66.6953325,14.8788348 67.4282248,14.6943842 67.9843041,14.6452701 C67.9896459,15.3214071 67.9955219,15.9980899 68.0008637,16.6764098 C66.534545,16.9421715 64.8176968,17.1970189 63.9496575,16.1279693 C63.1708259,15.1696992 63.2114234,13.6324288 63.2114234,11.872508 C63.2114234,9.26673368 63.2114234,6.65986796 63.2114234,4.05518509 Z M21.9568539,10.4378314 C21.9862337,8.68336766 20.0546459,8.63589073 18.5942032,9.0844659 C18.1823519,9.20997964 17.8281919,9.47574133 17.4467888,9.584338 C17.2769201,9.00915766 17.1075857,8.43397732 16.9382513,7.8593427 C17.3260645,7.43969025 18.7165299,7.20066844 19.4643792,7.06969759 C19.8548633,7.0014836 20.417887,6.93490675 20.8585839,7.00475787 C21.1267412,7.02658635 21.3943644,7.04841483 21.663056,7.06969759 C22.6566271,7.28197952 23.4418688,7.6667064 23.9423936,8.35812337 C25.2051905,10.1027643 24.4648198,14.1383038 24.828595,16.7238867 L24.795476,16.7238867 C24.0978394,17.0878765 22.9360022,16.7959207 22.5807738,16.3702654 C22.4894294,16.2605773 22.2410366,15.7481538 22.1539656,15.7094083 C21.705256,16.63439 19.5936503,17.249953 18.2015823,16.7724551 C17.1492516,16.4122852 16.4713797,15.617183 16.2657211,14.4193454 C16.1305741,13.6324288 16.4104834,12.8771636 16.6919952,12.4204027 C17.5952902,10.9546206 19.5760224,10.4443799 21.9568539,10.4378314 Z M22.0396515,12.1464553 C20.8078369,12.1229897 19.6636276,12.3227203 19.1689787,13.0337829 C18.8821251,13.4452496 18.8714416,14.2125206 19.1844699,14.6130731 C19.571749,15.1053052 20.5792087,15.1495079 21.1694755,14.8062551 C22.0765098,14.2790974 22.0556768,13.5554835 22.0396515,12.1464553 Z M45.2822719,16.7238867 L42.6418299,16.7238867 L42.6418299,12.5169937 C42.6418299,10.8149183 42.6920426,9.26727939 41.0836326,9.14831419 C40.2139907,9.0844659 39.6509671,9.77915714 39.4597313,10.4056344 C39.3283235,10.8362011 39.3945616,11.4888725 39.3945616,12.018213 L39.3945616,15.1445965 L39.3945616,16.7238867 L36.7535854,16.7238867 L36.7535854,12.6463274 C36.7535854,10.8411125 36.8529425,9.35677614 35.2114134,9.14831419 C34.6286252,9.07409738 34.1633561,9.52048971 33.932057,9.82554265 C33.4304639,10.4874912 33.4886893,11.2476679 33.4892235,12.4045771 L33.4892235,16.7238867 L30.8482473,16.7238867 L30.8482473,7.19793988 L33.3572815,7.19793988 L33.3572815,8.50437416 C33.3684992,8.49891704 33.3791828,8.49345992 33.3904005,8.48854851 C33.8700924,7.33000216 35.8908879,6.56600551 37.4581662,7.2306826 C37.94961,7.43914454 38.3833626,7.82005144 38.6557934,8.24625243 C38.7321809,8.3963232 38.8091025,8.54693969 38.8854899,8.69701046 C38.8908317,8.68609622 38.8961735,8.67572769 38.9009811,8.66481346 C39.0110218,8.52511121 39.1199941,8.38595468 39.2295006,8.24570672 C39.5275719,7.87898833 39.9672005,7.56520399 40.4105682,7.34309925 C40.7524422,7.17174571 41.1471997,7.07897469 41.5916359,7.00421216 C42.6225995,6.83231292 43.4617932,7.24705395 43.9858218,7.65033504 C45.2966947,8.65499064 45.2817377,10.5491566 45.2817377,12.8717064 C45.2822719,14.1557665 45.2822719,15.4392809 45.2822719,16.7238867 Z M52.0241329,10.4378314 C52.0508418,8.72920746 50.173206,8.61951937 48.7111607,9.06809455 C48.2747372,9.20179396 47.9066886,9.44627289 47.5135335,9.58379229 C47.3441991,8.99769771 47.1743305,8.41214885 47.0055302,7.82659999 C47.2079837,7.72946327 47.4104372,7.63341798 47.6123565,7.53628126 C48.0391647,7.35837918 48.5220617,7.23941399 49.006027,7.13409159 C49.4429846,7.08497752 49.8815448,7.03695488 50.3185024,6.98784081 C50.950435,6.88742982 51.6972159,7.04459484 52.1550065,7.18102282 C54.9765348,8.02687625 54.7302788,10.3128634 54.7302788,13.8381622 C54.7414965,14.4662766 54.7521801,15.0954824 54.7633978,15.7235968 C54.7959827,16.0624839 54.8285675,16.401371 54.8611524,16.7391666 C54.6213065,16.7822779 54.3809263,16.8253891 54.1394779,16.8685004 C53.1560561,17.0163883 52.4461335,16.3779054 52.2698548,15.7077712 C52.0791532,15.770528 51.9472112,16.039564 51.7939021,16.1590749 C51.5001042,16.3866368 51.1518201,16.5792731 50.7768271,16.7222496 C48.7757962,17.4944319 46.8885452,16.3882739 46.4302205,14.9175803 C46.1631315,14.0629955 46.3869521,13.0092258 46.7411121,12.4351369 C47.6513515,10.9655348 49.6230026,10.4340114 52.0241329,10.4378314 Z M52.1058621,12.1464553 C50.9333413,12.1251726 49.7720383,12.3063489 49.2683084,12.9530175 C48.9157509,13.4037755 48.9301737,14.2245262 49.2837995,14.6616415 C49.6411647,15.102031 50.5775787,15.1254966 51.1379315,14.8548235 C52.1213533,14.3789627 52.1224216,13.5854976 52.1058621,12.1464553 Z M62.1452041,9.55159528 C60.7451234,9.47519562 60.0271882,9.54613816 59.4545493,10.5022254 C59.1404526,11.0266545 59.1762425,11.8534081 59.1762425,12.6948958 L59.1762425,16.7238867 L56.4530029,16.7238867 L56.4530029,7.19793988 L58.8477231,7.19793988 C58.8439838,7.44514737 58.8220825,8.95731503 58.8968674,9.00424625 C59.2478224,7.82550856 60.4604065,6.69261067 62.1452041,7.05387194 L62.1452041,9.55159528 Z" id="SVGID_1_-path" fill="#FFFFFF"></path>
                </g>
            </g>
        </g>
    </g>
</svg>